<?xml version="1.0" standalone="no"?>
<!DOCTYPE svg PUBLIC "-//W3C//DTD SVG 20010904//EN"
 "http://www.w3.org/TR/2001/REC-SVG-20010904/DTD/svg10.dtd">
<svg version="1.0" xmlns="http://www.w3.org/2000/svg"
 width="1058.000000pt" height="536.000000pt" viewBox="0 0 1058.000000 536.000000"
 preserveAspectRatio="xMidYMid meet">

<g transform="translate(0.000000,536.000000) scale(0.100000,-0.100000)"
fill="#000000" stroke="none">
<path d="M940 3655 c-287 -45 -513 -219 -616 -475 -65 -160 -94 -375 -75 -568
14 -156 41 -257 97 -372 39 -77 62 -109 128 -175 144 -143 314 -209 576 -222
137 -7 260 7 427 47 147 36 158 37 187 5 13 -14 28 -25 34 -25 10 0 19 158 24
435 3 123 2 130 -17 133 -16 2 -28 -14 -63 -92 -127 -276 -288 -438 -450 -453
-202 -18 -351 148 -408 455 -22 116 -31 548 -15 716 28 295 107 464 249 529
73 34 198 31 274 -6 110 -54 220 -190 324 -399 41 -83 52 -98 72 -98 24 0 24
1 18 78 -3 42 -9 166 -12 275 -7 211 -10 219 -54 172 -30 -32 -41 -31 -180 4
-204 53 -349 62 -520 36z"/>
<path d="M9145 2792 l-320 -867 -63 -3 c-58 -3 -62 -4 -62 -27 l0 -25 195 0
195 0 0 25 c0 24 -2 24 -94 27 l-93 3 96 270 96 270 250 0 250 0 92 -272 92
-273 -90 0 c-88 0 -89 0 -89 -25 l0 -25 415 0 415 0 0 25 c0 24 -3 25 -59 25
l-58 0 -55 148 c-30 81 -173 472 -319 869 l-264 723 -105 0 -105 0 -320 -868z
m320 68 c58 -176 105 -324 105 -330 0 -6 -81 -10 -226 -10 -177 0 -225 3 -222
13 3 6 56 155 119 330 62 174 114 317 116 317 1 0 50 -144 108 -320z"/>
<path d="M1932 3613 c3 -27 5 -28 76 -31 l72 -3 0 -824 0 -824 -72 -3 c-71 -3
-73 -4 -76 -30 l-3 -28 699 0 700 0 6 228 c4 125 9 248 12 275 6 47 6 47 -23
47 -26 0 -31 -5 -42 -42 -19 -65 -77 -169 -124 -224 -131 -154 -282 -224 -486
-224 l-101 0 0 405 0 405 58 0 c86 0 156 -24 208 -72 48 -44 104 -146 125
-227 11 -43 16 -51 36 -51 l23 0 -2 372 c-3 338 -5 373 -20 376 -12 2 -20 -11
-33 -55 -24 -81 -50 -128 -102 -184 -61 -65 -115 -89 -211 -92 l-77 -2 -3 389
-2 388 132 -4 c102 -4 147 -10 191 -26 123 -44 209 -136 294 -312 41 -85 52
-100 72 -100 23 0 23 2 17 63 -3 34 -8 127 -11 207 -3 80 -8 164 -11 188 l-5
42 -660 0 -660 0 3 -27z"/>
<path d="M3530 3615 c0 -24 2 -25 70 -25 l70 0 0 -835 0 -835 -70 0 c-68 0
-70 -1 -70 -25 l0 -25 175 0 175 0 0 25 c0 24 -2 25 -70 25 l-70 0 0 792 c0
435 2 789 3 787 2 -2 199 -370 437 -816 l432 -813 179 0 179 0 0 860 0 860 70
0 c68 0 70 1 70 25 l0 25 -175 0 -175 0 0 -25 c0 -24 2 -25 70 -25 l70 0 0
-607 -1 -608 -62 116 c-34 64 -183 349 -332 633 l-270 516 -352 0 -353 0 0
-25z"/>
<path d="M5276 3558 c-3 -46 -8 -168 -11 -273 -3 -104 -8 -209 -11 -233 -5
-42 -5 -43 21 -40 25 3 31 14 75 133 114 315 206 424 370 442 l60 6 0 -837 0
-836 -110 0 -110 0 0 -25 0 -25 465 0 465 0 0 25 c0 24 -1 24 -107 27 l-108 3
0 830 0 830 59 -2 c75 -3 153 -40 201 -96 49 -57 117 -196 169 -347 41 -116
46 -125 71 -128 l28 -4 -6 89 c-4 48 -9 176 -12 283 -3 107 -8 210 -11 228
l-5 32 -743 0 -744 0 -6 -82z"/>
<path d="M6940 3615 c0 -25 1 -25 80 -25 l80 0 0 -835 0 -835 -80 0 c-79 0
-80 0 -80 -25 l0 -25 410 0 410 0 0 25 c0 25 -1 25 -85 25 l-85 0 0 425 0 425
93 0 c118 0 152 -16 187 -85 24 -48 25 -61 32 -305 3 -140 11 -274 17 -298 29
-114 79 -174 178 -213 50 -19 77 -23 198 -23 113 -1 149 3 187 17 86 33 140
123 167 277 10 61 8 70 -18 70 -14 0 -20 -11 -26 -46 -16 -106 -57 -174 -105
-174 -67 0 -79 42 -80 270 0 182 -11 272 -41 340 -41 93 -132 154 -269 181
l-65 13 84 13 c192 30 289 102 332 245 29 96 24 279 -9 353 -63 138 -198 203
-469 225 -69 5 -332 10 -584 10 l-459 0 0 -25z m897 -48 c96 -51 118 -116 118
-342 0 -209 -14 -265 -85 -335 -54 -54 -99 -70 -204 -70 l-76 0 0 386 0 386
108 -4 c75 -3 116 -9 139 -21z"/>
</g>
</svg>
